<mxfile host="drawio-plugin" modified="2024-07-01T15:22:29.741Z" agent="5.0 (Windows NT 6.2; Win64; x64) AppleWebKit/537.36 (KHTML, like Gecko) Chrome/87.0.4280.141 Safari/537.36" etag="Ly4MjmKA1h46BZJ_B5EX" version="20.5.3" type="embed"><diagram name="Page-1" id="zCJOOwEvWnlqeo-MKQPp"><mxGraphModel dx="370" dy="485" grid="1" gridSize="10" guides="1" tooltips="1" connect="1" arrows="1" fold="1" page="1" pageScale="1" pageWidth="850" pageHeight="1100" math="0" shadow="0"><root><mxCell id="0"/><mxCell id="1" parent="0"/><mxCell id="24lvV09j2VHUAjs1KWGv-9" value="" style="edgeStyle=orthogonalEdgeStyle;rounded=0;orthogonalLoop=1;jettySize=auto;html=1;" parent="1" source="24lvV09j2VHUAjs1KWGv-1" target="24lvV09j2VHUAjs1KWGv-8" edge="1"><mxGeometry relative="1" as="geometry"><Array as="points"><mxPoint x="105" y="160"/><mxPoint x="105" y="160"/></Array></mxGeometry></mxCell><mxCell id="24lvV09j2VHUAjs1KWGv-1" value="Start" style="rounded=1;whiteSpace=wrap;html=1;" parent="1" vertex="1"><mxGeometry x="40" y="90" width="120" height="60" as="geometry"/></mxCell><mxCell id="24lvV09j2VHUAjs1KWGv-2" value="End" style="rounded=1;whiteSpace=wrap;html=1;" parent="1" vertex="1"><mxGeometry x="50" y="300" width="120" height="60" as="geometry"/></mxCell><mxCell id="24lvV09j2VHUAjs1KWGv-7" value="2. print my name" style="text;html=1;align=center;verticalAlign=middle;whiteSpace=wrap;rounded=0;" parent="1" vertex="1"><mxGeometry x="55" y="30" width="110" height="30" as="geometry"/></mxCell><mxCell id="24lvV09j2VHUAjs1KWGv-11" value="" style="edgeStyle=orthogonalEdgeStyle;rounded=0;orthogonalLoop=1;jettySize=auto;html=1;" parent="1" source="24lvV09j2VHUAjs1KWGv-8" target="24lvV09j2VHUAjs1KWGv-2" edge="1"><mxGeometry relative="1" as="geometry"><Array as="points"><mxPoint x="105" y="290"/><mxPoint x="105" y="290"/></Array></mxGeometry></mxCell><mxCell id="24lvV09j2VHUAjs1KWGv-8" value="&quot;Itay&quot;" style="shape=document;whiteSpace=wrap;html=1;boundedLbl=1;" parent="1" vertex="1"><mxGeometry x="50" y="190" width="110" height="70" as="geometry"/></mxCell></root></mxGraphModel></diagram></mxfile>